<svg xmlns="http://www.w3.org/2000/svg" enable-background="new 0 0 67 67" viewBox="0 0 67 67"><path fill="#BDD7F0" d="M61.83848,4.5171c0,0.72955-0.59194,1.33527-1.32141,1.33527c-0.72955,0-1.32141-0.60572-1.32141-1.33527
			c0-0.72938,0.59186-1.32133,1.32141-1.32133C61.24654,3.19577,61.83848,3.78772,61.83848,4.5171z"/><path fill="#48A0D9" d="M57.06258,4.5171c0,0.72955-0.59195,1.33527-1.32141,1.33527c-0.72955,0-1.32141-0.60572-1.32141-1.33527
			c0-0.72938,0.59186-1.32133,1.32141-1.32133C56.47064,3.19577,57.06258,3.78772,57.06258,4.5171z"/><path fill="#F6968A" d="M52.28669 4.5171c0 .72955-.59194 1.33527-1.32141 1.33527-.72955 0-1.32141-.60572-1.32141-1.33527 0-.72938.59186-1.32133 1.32141-1.32133C51.69474 3.19577 52.28669 3.78772 52.28669 4.5171zM25.90749 24.2418c0 5.34998-4.33997 9.69-9.69 9.69-5.34998 0-9.69-4.34003-9.69-9.69 0-5.35004 4.34003-9.69 9.69-9.69v9.69H25.90749z"/><path fill="#3EBDA7" d="M27.90749,22.2418h-9.69v-9.69C23.56752,12.5518,27.90749,16.89176,27.90749,22.2418z"/><rect width="12.617" height="1" x="31.289" y="12.052" fill="#BDD7F0"/><rect width="12.617" height="1" x="48.821" y="12.052" fill="#BDD7F0"/><rect width="12.617" height="1" x="31.289" y="16.896" fill="#BDD7F0"/><rect width="12.617" height="1" x="48.821" y="16.896" fill="#BDD7F0"/><rect width="12.617" height="1" x="31.289" y="21.741" fill="#BDD7F0"/><rect width="12.617" height="1" x="48.821" y="21.741" fill="#BDD7F0"/><rect width="12.617" height="1" x="31.289" y="26.585" fill="#BDD7F0"/><rect width="12.617" height="1" x="48.821" y="26.585" fill="#BDD7F0"/><rect width="12.617" height="1" x="31.289" y="31.43" fill="#BDD7F0"/><rect width="12.617" height="1" x="48.821" y="31.43" fill="#BDD7F0"/><rect width="13.21" height="17.19" x="6.875" y="38.446" fill="#BDD7F0"/><rect width="13.21" height="17.19" x="28.225" y="38.446" fill="#48A0D9"/><rect width="13.21" height="17.19" x="49.575" y="38.446" fill="#F6968A"/><path fill="#223059" d="M63.4729,0.99993H3.5271c-1.37842,0-2.5,1.12158-2.5,2.5c0,18.75633,0,42.60227,0,60.18994
			c0,1.27392,1.12158,2.31005,2.5,2.31005h59.9458c1.37842,0,2.5-1.03613,2.5-2.31005c0-14.01406,0-46.15892,0-60.18994
			C65.9729,2.12151,64.85132,0.99993,63.4729,0.99993z M64.9729,63.68987c0,0.72216-0.67285,1.31005-1.5,1.31005H3.5271
			c-0.82715,0-1.5-0.58789-1.5-1.31005V8.04973h62.9458V63.68987z M2.0271,3.49993c0-0.82715,0.67285-1.5,1.5-1.5h59.9458
			c0.82715,0,1.5,0.67285,1.5,1.5v3.54834H2.0271V3.49993z"/><rect width="27.09" height="1" x="6.389" y="4.024" fill="#223059"/><path fill="#223059" d="M15.21753,33.43157c5.61865,0,10.18994-4.57129,10.18994-10.18994v-0.5h-9.68994v-9.68994h-0.5
			c-5.61865,0-10.18994,4.57129-10.18994,10.18994S9.59888,33.43157,15.21753,33.43157z M14.71753,14.06536v9.67627h9.67627
			c-0.26025,4.83594-4.27637,8.68994-9.17627,8.68994c-5.06738,0-9.18994-4.12256-9.18994-9.18994
			C6.02759,18.34172,9.88159,14.32561,14.71753,14.06536z"/><path fill="#223059" d="M27.40747 21.24162c0-5.61865-4.57129-10.18994-10.18994-10.18994h-.5v10.68994h10.68994V21.24162zM17.71753 20.74162v-8.67627c4.67041.25146 8.4248 4.00586 8.67627 8.67627H17.71753zM19.23755 36.62151H5.02759v18.19043h14.20996V36.62151zM18.23755 53.81194H6.02759V37.62151h12.20996V53.81194zM26.3772 54.81194h14.20996V36.62151H26.3772V54.81194zM27.3772 37.62151h12.20996v16.19043H27.3772V37.62151zM61.93726 36.62151H47.72729v18.19043h14.20996V36.62151zM60.93726 53.81194H48.72729V37.62151h12.20996V53.81194z"/><rect width="13.21" height="1" x="5.528" y="57.307" fill="#223059"/><rect width="13.21" height="1" x="26.877" y="57.307" fill="#223059"/><rect width="13.21" height="1" x="48.227" y="57.307" fill="#223059"/><rect width="13.21" height="1" x="5.528" y="61" fill="#223059"/><rect width="13.21" height="1" x="26.877" y="61" fill="#223059"/><rect width="13.21" height="1" x="48.227" y="61" fill="#223059"/></svg>