<svg xmlns="http://www.w3.org/2000/svg" viewBox="0 0 128 128"><g data-name="web maintenance"><path fill="#8cd4dc" d="M100,54.23a36.78,36.78,0,0,0-3.63-8.73,1,1,0,0,1,.15-1.2l2.9-2.9a1,1,0,0,0,0-1.41L88,28.62a1,1,0,0,0-1.41,0l-2.9,2.9a1,1,0,0,1-1.2.15A36.78,36.78,0,0,0,73.77,28a1,1,0,0,1-.74-1V23a1,1,0,0,0-1-1H56a1,1,0,0,0-1,1v4.09a1,1,0,0,1-.74,1,36.78,36.78,0,0,0-8.73,3.63,1,1,0,0,1-1.2-.15l-2.9-2.9a1,1,0,0,0-1.41,0L28.62,40a1,1,0,0,0,0,1.41l2.9,2.9a1,1,0,0,1,.15,1.2A36.78,36.78,0,0,0,28,54.23a1,1,0,0,1-1,.74H23a1,1,0,0,0-1,1V72a1,1,0,0,0,1,1h4.09a1,1,0,0,1,1,.74,36.78,36.78,0,0,0,3.63,8.73,1,1,0,0,1-.15,1.2l-2.9,2.9a1,1,0,0,0,0,1.41L40,99.38a1,1,0,0,0,1.41,0l2.9-2.9a1,1,0,0,1,1.2-.15A36.77,36.77,0,0,0,54.23,100a1,1,0,0,1,.74,1V105a1,1,0,0,0,1,1H72a1,1,0,0,0,1-1v-4.09a1,1,0,0,1,.74-1,36.77,36.77,0,0,0,8.73-3.63,1,1,0,0,1,1.2.15l2.9,2.9a1,1,0,0,0,1.41,0L99.38,88a1,1,0,0,0,0-1.41l-2.9-2.9a1,1,0,0,1-.15-1.2A36.78,36.78,0,0,0,100,73.77a1,1,0,0,1,1-.74H105a1,1,0,0,0,1-1V56a1,1,0,0,0-1-1h-4.09A1,1,0,0,1,100,54.23Z"/><ellipse cx="64" cy="64" fill="#8cd4dc" rx="30.82" ry="30.75"/><path fill="#7f91c9" d="M42.34 60.92c-3.14-.28-6.12-.64-8.88-1a30.61 30.61 0 0 1 5.27-13.48c1.93.48 4 .86 6.23 1.21A46.75 46.75 0 0 0 42.34 60.92zM44.43 78.61c-2.41.39-4.66.86-6.67 1.4a30.57 30.57 0 0 1-4.58-16.15c0-.53 0-1.06 0-1.58 2.81.41 5.83.77 9 1.06v.52A48.94 48.94 0 0 0 44.43 78.61zM53 92.64A30.91 30.91 0 0 1 39.18 82.14c1.85-.46 3.88-.86 6.06-1.21A29.69 29.69 0 0 0 53 92.64zM45.95 45.38c-2-.3-3.89-.64-5.64-1a31 31 0 0 1 12.8-9.12A28.68 28.68 0 0 0 45.95 45.38zM81.56 45.16c2-.3 4.38-.43 6.13-.81A33.13 33.13 0 0 0 74.4 35 28.68 28.68 0 0 1 81.56 45.16zM85.67 60.92A46.75 46.75 0 0 0 83 47.6c2.26-.35 4.39-.76 6.32-1.23a30.58 30.58 0 0 1 5.18 13.5C91.79 60.28 88.82 60.64 85.67 60.92zM82.76 80.93c2.18.35 4.21.75 6.05 1.22A30.83 30.83 0 0 1 75 92.64 29.69 29.69 0 0 0 82.76 80.93zM94.82 63.87A30.57 30.57 0 0 1 90.24 80c-2-.54-4.25-1-6.67-1.4a48.94 48.94 0 0 0 2.18-14.74v-.52c2.77-.22 5-.44 9-1.06C94.8 62.81 94.82 63.34 94.82 63.87z"/><path fill="#8ca2d3" d="M62.77 33.27V46.9a123.73 123.73 0 0 1-14.59-1C51.52 38.22 56.78 33.9 62.77 33.27zM65.23 33.27V46.9a123.73 123.73 0 0 0 14.59-1C76.48 38.22 71.22 33.9 65.23 33.27zM62.76 49v12.9c-6.48 0-12.75-.28-18.55-.73A42.69 42.69 0 0 1 47 48 135.92 135.92 0 0 0 62.76 49zM65.24 49v12.9c6.48 0 12.75-.28 18.55-.73A42.69 42.69 0 0 0 81 48 135.92 135.92 0 0 1 65.24 49zM62.76 64.27v12.9a133.18 133.18 0 0 0-16.34 1.08 44.72 44.72 0 0 1-2.29-14.38v-.32C50 64 56.26 64.24 62.76 64.27zM47.51 80.62a124.46 124.46 0 0 1 15.26-1V94.73C56.36 94.08 50.8 88.95 47.51 80.62z"/><path fill="#87a6d7" d="M79.82 45.6l-.67.08.37-.74C79.62 45.15 79.72 45.38 79.82 45.6zM65.23 79.62a122.6 122.6 0 0 1 15.26 1C77.2 89 71.64 94.08 65.23 94.73zM83.88 63.55v.32a44.72 44.72 0 0 1-2.29 14.38 133.07 133.07 0 0 0-16.34-1.08V64.27C71.74 64.24 78 64 83.88 63.55z"/><path fill="#7751a1" d="M106 53.47h-4.7a38.24 38.24 0 0 0-3.49-8.39l3.33-3.33a1.5 1.5 0 0 0 0-2.12L88.37 26.85a1.5 1.5 0 0 0-2.12 0l-3.33 3.33c-1-.56-2-1.08-3-1.54a1.5 1.5 0 0 0-1.23 2.73 35.47 35.47 0 0 1 3.75 2 1.5 1.5 0 0 0 1.84-.22L87.31 30 98 40.69l-3.09 3.09a1.5 1.5 0 0 0-.22 1.84 35.26 35.26 0 0 1 4 9.72 1.5 1.5 0 0 0 1.46 1.14h4.35V71.53h-4.35a1.5 1.5 0 0 0-1.46 1.14 35.26 35.26 0 0 1-4 9.72 1.5 1.5 0 0 0 .22 1.84L98 87.31 87.31 98l-3.09-3.09a1.5 1.5 0 0 0-1.84-.22 35.26 35.26 0 0 1-9.72 4 1.5 1.5 0 0 0-1.14 1.46v4.35H56.47v-4.35a1.5 1.5 0 0 0-3 0V106a1.5 1.5 0 0 0 1.5 1.5H73a1.5 1.5 0 0 0 1.5-1.5v-4.7a38.24 38.24 0 0 0 8.39-3.49l3.33 3.33a1.5 1.5 0 0 0 2.12 0l12.78-12.78a1.5 1.5 0 0 0 0-2.12l-3.33-3.33a38.24 38.24 0 0 0 3.49-8.39H106a1.5 1.5 0 0 0 1.5-1.5V55A1.5 1.5 0 0 0 106 53.47zM50.07 96.93a35.36 35.36 0 0 1-4.45-2.28 1.5 1.5 0 0 0-1.84.22L40.69 98 30 87.31l3.09-3.09a1.5 1.5 0 0 0 .22-1.84 35.26 35.26 0 0 1-4-9.72 1.5 1.5 0 0 0-1.46-1.14H23.5V56.47h4.35a1.5 1.5 0 0 0 1.46-1.14 35.26 35.26 0 0 1 4-9.72 1.5 1.5 0 0 0-.22-1.84L30 40.69 40.69 30l3.09 3.09a1.5 1.5 0 0 0 1.84.22 35.26 35.26 0 0 1 9.72-4 1.5 1.5 0 0 0 1.14-1.46V23.5H71.53v4.35a1.5 1.5 0 1 0 3 0V22A1.5 1.5 0 0 0 73 20.5H55a1.5 1.5 0 0 0-1.5 1.5v4.7a38.24 38.24 0 0 0-8.39 3.49l-3.33-3.33a1.5 1.5 0 0 0-2.12 0L26.85 39.63a1.5 1.5 0 0 0 0 2.12l3.33 3.33a38.24 38.24 0 0 0-3.49 8.39H22A1.5 1.5 0 0 0 20.5 55V73a1.5 1.5 0 0 0 1.5 1.5h4.7a38.24 38.24 0 0 0 3.49 8.39l-3.33 3.33a1.5 1.5 0 0 0 0 2.12l12.78 12.78a1.5 1.5 0 0 0 2.12 0l3.33-3.33a38.25 38.25 0 0 0 3.81 1.88 1.5 1.5 0 0 0 1.17-2.76z"/><path fill="#7751a1" d="M95.38,60.32a1.51,1.51,0,0,0-.09-.28,31.39,31.39,0,0,0-6.4-15.38,1.48,1.48,0,0,0-.23-.29,31.5,31.5,0,0,0-49.35,0,1.48,1.48,0,0,0-.2.25A31.39,31.39,0,0,0,32.71,60a1.51,1.51,0,0,0-.09.28,1.49,1.49,0,0,0,0,.53c-.1,1-.16,2.09-.16,3.15a31.37,31.37,0,0,0,5.66,18,1.47,1.47,0,0,0,.23.33,31.5,31.5,0,0,0,51.33,0,1.46,1.46,0,0,0,.17-.23A31.37,31.37,0,0,0,95.55,64c0-1.06-.05-2.11-.16-3.15A1.49,1.49,0,0,0,95.38,60.32ZM84,64a38.16,38.16,0,0,1-2.6,14,101.25,101.25,0,0,0-15.9-1.39V64.71a181.54,181.54,0,0,0,18.49-1C84,63.79,84,63.89,84,64ZM44,64c0-.11,0-.21,0-.32a181.54,181.54,0,0,0,18.49,1V76.65A101.23,101.23,0,0,0,46.6,78,38.16,38.16,0,0,1,44,64ZM41,47.14c1,.28,2.11.54,3.25.78A39.69,39.69,0,0,0,41.16,60.3c-1.88-.26-3.67-.54-5.35-.86A28.4,28.4,0,0,1,41,47.14Zm6.25,1.35A102.9,102.9,0,0,0,62.5,49.78V61.71a177.88,177.88,0,0,1-18.36-1A36.72,36.72,0,0,1,47.22,48.49Zm32.11-2.8A101.37,101.37,0,0,1,65.5,46.78V35.54C71,36.13,76,39.95,79.33,45.69ZM62.5,35.54V46.78a101.38,101.38,0,0,1-13.83-1.09C52,39.95,57,36.13,62.5,35.54Zm0,44.12V92.46c-6-.64-11.26-5.06-14.63-11.6A99.52,99.52,0,0,1,62.5,79.65Zm3,12.81V79.65a99.53,99.53,0,0,1,14.63,1.21C76.76,87.4,71.49,91.82,65.5,92.46Zm0-30.76V49.78a102.88,102.88,0,0,0,15.28-1.29,36.72,36.72,0,0,1,3.08,12.18A177.88,177.88,0,0,1,65.5,61.71ZM83.78,47.93c1.14-.24,2.22-.5,3.25-.78a28.4,28.4,0,0,1,5.16,12.3c-1.68.32-3.47.61-5.35.86A39.69,39.69,0,0,0,83.78,47.93Zm1.14-3.33c-.8.2-1.63.38-2.49.55a29.59,29.59,0,0,0-4.15-5.85A28.74,28.74,0,0,1,84.92,44.59Zm-35.19-5.3a29.59,29.59,0,0,0-4.15,5.85c-.86-.17-1.69-.35-2.49-.55A28.74,28.74,0,0,1,49.72,39.29ZM35.49,62.43c1.74.33,3.59.62,5.52.88,0,.23,0,.46,0,.69a41,41,0,0,0,2.63,14.63c-1.26.28-2.45.58-3.56.91A28.38,28.38,0,0,1,35.45,64C35.45,63.47,35.46,63,35.49,62.43ZM42,82.13q1.37-.37,2.88-.7a30.31,30.31,0,0,0,4.88,7.28A28.76,28.76,0,0,1,42,82.13Zm36.32,6.58a30.31,30.31,0,0,0,4.88-7.28q1.51.32,2.88.7A28.76,28.76,0,0,1,78.28,88.71Zm9.65-9.17c-1.11-.33-2.31-.64-3.56-.91A41,41,0,0,0,87,64c0-.23,0-.46,0-.69,1.93-.26,3.78-.55,5.52-.88,0,.52,0,1,0,1.57A28.38,28.38,0,0,1,87.93,79.54Z"/></g></svg>